<svg width="1600" height="1600" viewBox="0 0 1600 1600" fill="none" xmlns="http://www.w3.org/2000/svg">
<g clip-path="url(#clip0_1_1566)">
<rect width="1600" height="1600" fill="white"/>
<rect width="100" height="100" fill="#D9D9D9"/>
<rect y="100" width="100" height="100" fill="#D9D9D9"/>
<rect y="200" width="100" height="100" fill="#D9D9D9"/>
<rect y="300" width="100" height="100" fill="#D9D9D9"/>
<rect y="400" width="100" height="100" fill="#D9D9D9"/>
<rect y="500" width="100" height="100" fill="#D9D9D9"/>
<rect y="600" width="100" height="100" fill="#D9D9D9"/>
<rect y="700" width="100" height="100" fill="#D9D9D9"/>
<rect y="800" width="100" height="100" fill="#D9D9D9"/>
<rect y="900" width="100" height="100" fill="#D9D9D9"/>
<rect y="1000" width="100" height="100" fill="#D9D9D9"/>
<rect y="1100" width="100" height="100" fill="#D9D9D9"/>
<rect y="1200" width="100" height="100" fill="#D9D9D9"/>
<rect y="1300" width="100" height="100" fill="#D9D9D9"/>
<rect y="1400" width="100" height="100" fill="#D9D9D9"/>
<rect y="1500" width="100" height="100" fill="#D9D9D9"/>
<rect x="100" width="100" height="100" fill="#D9D9D9"/>
<rect x="100" y="100" width="100" height="100" fill="#D9D9D9"/>
<rect x="100" y="200" width="100" height="100" fill="#D9D9D9"/>
<rect x="100" y="300" width="100" height="100" fill="#D9D9D9"/>
<rect x="100" y="400" width="100" height="100" fill="#D9D9D9"/>
<rect x="100" y="500" width="100" height="100" fill="#D9D9D9"/>
<rect x="100" y="600" width="100" height="100" fill="#D9D9D9"/>
<rect x="100" y="700" width="100" height="100" fill="#D9D9D9"/>
<rect x="100" y="800" width="100" height="100" fill="#D9D9D9"/>
<rect x="100" y="900" width="100" height="100" fill="#D9D9D9"/>
<rect x="100" y="1000" width="100" height="100" fill="#D9D9D9"/>
<rect x="100" y="1100" width="100" height="100" fill="#D9D9D9"/>
<rect x="100" y="1200" width="100" height="100" fill="#D9D9D9"/>
<rect x="100" y="1300" width="100" height="100" fill="#D9D9D9"/>
<rect x="100" y="1400" width="100" height="100" fill="#D9D9D9"/>
<rect x="100" y="1500" width="100" height="100" fill="#D9D9D9"/>
<rect x="200" width="100" height="100" fill="#D9D9D9"/>
<rect x="200" y="100" width="100" height="100" fill="#D9D9D9"/>
<rect x="200" y="200" width="100" height="100" fill="#D9D9D9"/>
<rect x="200" y="300" width="100" height="100" fill="#D9D9D9"/>
<rect x="200" y="400" width="100" height="100" fill="#D9D9D9"/>
<rect x="200" y="500" width="100" height="100" fill="#D9D9D9"/>
<rect x="200" y="600" width="100" height="100" fill="#D9D9D9"/>
<rect x="200" y="700" width="100" height="100" fill="#D9D9D9"/>
<rect x="200" y="800" width="100" height="100" fill="#D9D9D9"/>
<rect x="200" y="900" width="100" height="100" fill="#D9D9D9"/>
<rect x="200" y="1000" width="100" height="100" fill="#D9D9D9"/>
<rect x="200" y="1100" width="100" height="100" fill="#D9D9D9"/>
<rect x="200" y="1200" width="100" height="100" fill="#D9D9D9"/>
<rect x="200" y="1300" width="100" height="100" fill="#D9D9D9"/>
<rect x="200" y="1400" width="100" height="100" fill="#D9D9D9"/>
<rect x="200" y="1500" width="100" height="100" fill="#D9D9D9"/>
<rect x="300" width="100" height="100" fill="#D9D9D9"/>
<rect x="300" y="100" width="100" height="100" fill="#D9D9D9"/>
<rect x="300" y="200" width="100" height="100" fill="#D9D9D9"/>
<rect x="300" y="300" width="100" height="100" fill="#D9D9D9"/>
<rect x="300" y="400" width="100" height="100" fill="#1C1C1C"/>
<rect x="300" y="500" width="100" height="100" fill="#1C1C1C"/>
<rect x="300" y="600" width="100" height="100" fill="#1C1C1C"/>
<rect x="300" y="700" width="100" height="100" fill="#1C1C1C"/>
<rect x="300" y="800" width="100" height="100" fill="#1C1C1C"/>
<rect x="300" y="900" width="100" height="100" fill="#1C1C1C"/>
<rect x="300" y="1000" width="100" height="100" fill="#1C1C1C"/>
<rect x="300" y="1100" width="100" height="100" fill="#D9D9D9"/>
<rect x="300" y="1200" width="100" height="100" fill="#D9D9D9"/>
<rect x="300" y="1300" width="100" height="100" fill="#D9D9D9"/>
<rect x="300" y="1400" width="100" height="100" fill="#D9D9D9"/>
<rect x="300" y="1500" width="100" height="100" fill="#D9D9D9"/>
<rect x="400" width="100" height="100" fill="#D9D9D9"/>
<rect x="400" y="100" width="100" height="100" fill="#D9D9D9"/>
<rect x="400" y="200" width="100" height="100" fill="#D9D9D9"/>
<rect x="400" y="300" width="100" height="100" fill="#D9D9D9"/>
<rect x="400" y="400" width="100" height="100" fill="#D9D9D9"/>
<rect x="400" y="500" width="100" height="100" fill="#D9D9D9"/>
<rect x="400" y="600" width="100" height="100" fill="#D9D9D9"/>
<rect x="400" y="700" width="100" height="100" fill="#D9D9D9"/>
<rect x="400" y="800" width="100" height="100" fill="#D9D9D9"/>
<rect x="400" y="900" width="100" height="100" fill="#D9D9D9"/>
<rect x="400" y="1000" width="100" height="100" fill="#D9D9D9"/>
<rect x="400" y="1100" width="100" height="100" fill="#1C1C1C"/>
<rect x="400" y="1200" width="100" height="100" fill="#D9D9D9"/>
<rect x="400" y="1300" width="100" height="100" fill="#D9D9D9"/>
<rect x="400" y="1400" width="100" height="100" fill="#D9D9D9"/>
<rect x="400" y="1500" width="100" height="100" fill="#D9D9D9"/>
<rect x="500" width="100" height="100" fill="#D9D9D9"/>
<rect x="500" y="100" width="100" height="100" fill="#D9D9D9"/>
<rect x="500" y="200" width="100" height="100" fill="#D9D9D9"/>
<rect x="500" y="300" width="100" height="100" fill="#D9D9D9"/>
<rect x="500" y="400" width="100" height="100" fill="#D9D9D9"/>
<rect x="500" y="500" width="100" height="100" fill="#D9D9D9"/>
<rect x="500" y="600" width="100" height="100" fill="#D9D9D9"/>
<rect x="500" y="700" width="100" height="100" fill="#D9D9D9"/>
<rect x="500" y="800" width="100" height="100" fill="#D9D9D9"/>
<rect x="500" y="900" width="100" height="100" fill="#D9D9D9"/>
<rect x="500" y="1000" width="100" height="100" fill="#D9D9D9"/>
<rect x="500" y="1100" width="100" height="100" fill="#D9D9D9"/>
<rect x="500" y="1200" width="100" height="100" fill="#1C1C1C"/>
<rect x="500" y="1300" width="100" height="100" fill="#D9D9D9"/>
<rect x="500" y="1400" width="100" height="100" fill="#D9D9D9"/>
<rect x="500" y="1500" width="100" height="100" fill="#D9D9D9"/>
<rect x="600" width="100" height="100" fill="#D9D9D9"/>
<rect x="600" y="100" width="100" height="100" fill="#D9D9D9"/>
<rect x="600" y="200" width="100" height="100" fill="#D9D9D9"/>
<rect x="600" y="300" width="100" height="100" fill="#D9D9D9"/>
<rect x="600" y="400" width="100" height="100" fill="#D9D9D9"/>
<rect x="600" y="500" width="100" height="100" fill="#D9D9D9"/>
<rect x="600" y="600" width="100" height="100" fill="#D9D9D9"/>
<rect x="600" y="700" width="100" height="100" fill="#D9D9D9"/>
<rect x="600" y="800" width="100" height="100" fill="#D9D9D9"/>
<rect x="600" y="900" width="100" height="100" fill="#D9D9D9"/>
<rect x="600" y="1000" width="100" height="100" fill="#D9D9D9"/>
<rect x="600" y="1100" width="100" height="100" fill="#D9D9D9"/>
<rect x="600" y="1200" width="100" height="100" fill="#D9D9D9"/>
<rect x="600" y="1300" width="100" height="100" fill="#1C1C1C"/>
<rect x="600" y="1400" width="100" height="100" fill="#D9D9D9"/>
<rect x="600" y="1500" width="100" height="100" fill="#D9D9D9"/>
<rect x="700" width="100" height="100" fill="#D9D9D9"/>
<rect x="700" y="100" width="100" height="100" fill="#D9D9D9"/>
<rect x="700" y="200" width="100" height="100" fill="#D9D9D9"/>
<rect x="700" y="300" width="100" height="100" fill="#D9D9D9"/>
<rect x="700" y="400" width="100" height="100" fill="#D9D9D9"/>
<rect x="700" y="500" width="100" height="100" fill="#D9D9D9"/>
<rect x="700" y="600" width="100" height="100" fill="#D9D9D9"/>
<rect x="700" y="700" width="100" height="100" fill="#D9D9D9"/>
<rect x="700" y="800" width="100" height="100" fill="#D9D9D9"/>
<rect x="700" y="900" width="100" height="100" fill="#D9D9D9"/>
<rect x="700" y="1000" width="100" height="100" fill="#D9D9D9"/>
<rect x="700" y="1100" width="100" height="100" fill="#D9D9D9"/>
<rect x="700" y="1200" width="100" height="100" fill="#1C1C1C"/>
<rect x="700" y="1300" width="100" height="100" fill="#D9D9D9"/>
<rect x="700" y="1400" width="100" height="100" fill="#D9D9D9"/>
<rect x="700" y="1500" width="100" height="100" fill="#D9D9D9"/>
<rect x="800" width="100" height="100" fill="#D9D9D9"/>
<rect x="800" y="100" width="100" height="100" fill="#D9D9D9"/>
<rect x="800" y="200" width="100" height="100" fill="#D9D9D9"/>
<rect x="800" y="300" width="100" height="100" fill="#D9D9D9"/>
<rect x="800" y="400" width="100" height="100" fill="#D9D9D9"/>
<rect x="800" y="500" width="100" height="100" fill="#D9D9D9"/>
<rect x="800" y="600" width="100" height="100" fill="#D9D9D9"/>
<rect x="800" y="700" width="100" height="100" fill="#D9D9D9"/>
<rect x="800" y="800" width="100" height="100" fill="#D9D9D9"/>
<rect x="800" y="900" width="100" height="100" fill="#D9D9D9"/>
<rect x="800" y="1000" width="100" height="100" fill="#D9D9D9"/>
<rect x="800" y="1100" width="100" height="100" fill="#1C1C1C"/>
<rect x="800" y="1200" width="100" height="100" fill="#D9D9D9"/>
<rect x="800" y="1300" width="100" height="100" fill="#D9D9D9"/>
<rect x="800" y="1400" width="100" height="100" fill="#D9D9D9"/>
<rect x="800" y="1500" width="100" height="100" fill="#D9D9D9"/>
<rect x="900" width="100" height="100" fill="#D9D9D9"/>
<rect x="900" y="100" width="100" height="100" fill="#D9D9D9"/>
<rect x="900" y="200" width="100" height="100" fill="#D9D9D9"/>
<rect x="900" y="300" width="100" height="100" fill="#D9D9D9"/>
<rect x="900" y="400" width="100" height="100" fill="#D9D9D9"/>
<rect x="900" y="500" width="100" height="100" fill="#D9D9D9"/>
<rect x="900" y="600" width="100" height="100" fill="#D9D9D9"/>
<rect x="900" y="700" width="100" height="100" fill="#D9D9D9"/>
<rect x="900" y="800" width="100" height="100" fill="#D9D9D9"/>
<rect x="900" y="900" width="100" height="100" fill="#D9D9D9"/>
<rect x="900" y="1000" width="100" height="100" fill="#D9D9D9"/>
<rect x="900" y="1100" width="100" height="100" fill="#D9D9D9"/>
<rect x="900" y="1200" width="100" height="100" fill="#1C1C1C"/>
<rect x="900" y="1300" width="100" height="100" fill="#D9D9D9"/>
<rect x="900" y="1400" width="100" height="100" fill="#D9D9D9"/>
<rect x="900" y="1500" width="100" height="100" fill="#D9D9D9"/>
<rect x="1000" width="100" height="100" fill="#D9D9D9"/>
<rect x="1000" y="100" width="100" height="100" fill="#D9D9D9"/>
<rect x="1000" y="200" width="100" height="100" fill="#D9D9D9"/>
<rect x="1000" y="300" width="100" height="100" fill="#D9D9D9"/>
<rect x="1000" y="400" width="100" height="100" fill="#D9D9D9"/>
<rect x="1000" y="500" width="100" height="100" fill="#D9D9D9"/>
<rect x="1000" y="600" width="100" height="100" fill="#D9D9D9"/>
<rect x="1000" y="700" width="100" height="100" fill="#D9D9D9"/>
<rect x="1000" y="800" width="100" height="100" fill="#D9D9D9"/>
<rect x="1000" y="900" width="100" height="100" fill="#D9D9D9"/>
<rect x="1000" y="1000" width="100" height="100" fill="#D9D9D9"/>
<rect x="1000" y="1100" width="100" height="100" fill="#D9D9D9"/>
<rect x="1000" y="1200" width="100" height="100" fill="#D9D9D9"/>
<rect x="1000" y="1300" width="100" height="100" fill="#1C1C1C"/>
<rect x="1000" y="1400" width="100" height="100" fill="#D9D9D9"/>
<rect x="1000" y="1500" width="100" height="100" fill="#D9D9D9"/>
<rect x="1100" width="100" height="100" fill="#D9D9D9"/>
<rect x="1100" y="100" width="100" height="100" fill="#D9D9D9"/>
<rect x="1100" y="200" width="100" height="100" fill="#D9D9D9"/>
<rect x="1100" y="300" width="100" height="100" fill="#D9D9D9"/>
<rect x="1100" y="400" width="100" height="100" fill="#D9D9D9"/>
<rect x="1100" y="500" width="100" height="100" fill="#D9D9D9"/>
<rect x="1100" y="600" width="100" height="100" fill="#D9D9D9"/>
<rect x="1100" y="700" width="100" height="100" fill="#D9D9D9"/>
<rect x="1100" y="800" width="100" height="100" fill="#D9D9D9"/>
<rect x="1100" y="900" width="100" height="100" fill="#D9D9D9"/>
<rect x="1100" y="1000" width="100" height="100" fill="#D9D9D9"/>
<rect x="1100" y="1100" width="100" height="100" fill="#D9D9D9"/>
<rect x="1100" y="1200" width="100" height="100" fill="#1C1C1C"/>
<rect x="1100" y="1300" width="100" height="100" fill="#D9D9D9"/>
<rect x="1100" y="1400" width="100" height="100" fill="#D9D9D9"/>
<rect x="1100" y="1500" width="100" height="100" fill="#D9D9D9"/>
<rect x="1200" width="100" height="100" fill="#D9D9D9"/>
<rect x="1200" y="100" width="100" height="100" fill="#D9D9D9"/>
<rect x="1200" y="200" width="100" height="100" fill="#D9D9D9"/>
<rect x="1200" y="300" width="100" height="100" fill="#D9D9D9"/>
<rect x="1200" y="400" width="100" height="100" fill="#D9D9D9"/>
<rect x="1200" y="500" width="100" height="100" fill="#D9D9D9"/>
<rect x="1200" y="600" width="100" height="100" fill="#D9D9D9"/>
<rect x="1200" y="700" width="100" height="100" fill="#D9D9D9"/>
<rect x="1200" y="800" width="100" height="100" fill="#D9D9D9"/>
<rect x="1200" y="900" width="100" height="100" fill="#D9D9D9"/>
<rect x="1200" y="1000" width="100" height="100" fill="#D9D9D9"/>
<rect x="1200" y="1100" width="100" height="100" fill="#1C1C1C"/>
<rect x="1200" y="1200" width="100" height="100" fill="#D9D9D9"/>
<rect x="1200" y="1300" width="100" height="100" fill="#D9D9D9"/>
<rect x="1200" y="1400" width="100" height="100" fill="#D9D9D9"/>
<rect x="1200" y="1500" width="100" height="100" fill="#D9D9D9"/>
<rect x="1300" width="100" height="100" fill="#D9D9D9"/>
<rect x="1300" y="100" width="100" height="100" fill="#D9D9D9"/>
<rect x="1300" y="200" width="100" height="100" fill="#D9D9D9"/>
<rect x="1300" y="300" width="100" height="100" fill="#D9D9D9"/>
<rect x="1300" y="400" width="100" height="100" fill="#1C1C1C"/>
<rect x="1300" y="500" width="100" height="100" fill="#1C1C1C"/>
<rect x="1300" y="600" width="100" height="100" fill="#1C1C1C"/>
<rect x="1300" y="700" width="100" height="100" fill="#1C1C1C"/>
<rect x="1300" y="800" width="100" height="100" fill="#1C1C1C"/>
<rect x="1300" y="900" width="100" height="100" fill="#1C1C1C"/>
<rect x="1300" y="1000" width="100" height="100" fill="#1C1C1C"/>
<rect x="1300" y="1100" width="100" height="100" fill="#D9D9D9"/>
<rect x="1300" y="1200" width="100" height="100" fill="#D9D9D9"/>
<rect x="1300" y="1300" width="100" height="100" fill="#D9D9D9"/>
<rect x="1300" y="1400" width="100" height="100" fill="#D9D9D9"/>
<rect x="1300" y="1500" width="100" height="100" fill="#D9D9D9"/>
<rect x="1400" width="100" height="100" fill="#D9D9D9"/>
<rect x="1400" y="100" width="100" height="100" fill="#D9D9D9"/>
<rect x="1400" y="200" width="100" height="100" fill="#D9D9D9"/>
<rect x="1400" y="300" width="100" height="100" fill="#D9D9D9"/>
<rect x="1400" y="400" width="100" height="100" fill="#D9D9D9"/>
<rect x="1400" y="500" width="100" height="100" fill="#D9D9D9"/>
<rect x="1400" y="600" width="100" height="100" fill="#D9D9D9"/>
<rect x="1400" y="700" width="100" height="100" fill="#D9D9D9"/>
<rect x="1400" y="800" width="100" height="100" fill="#D9D9D9"/>
<rect x="1400" y="900" width="100" height="100" fill="#D9D9D9"/>
<rect x="1400" y="1000" width="100" height="100" fill="#D9D9D9"/>
<rect x="1400" y="1100" width="100" height="100" fill="#D9D9D9"/>
<rect x="1400" y="1200" width="100" height="100" fill="#D9D9D9"/>
<rect x="1400" y="1300" width="100" height="100" fill="#D9D9D9"/>
<rect x="1400" y="1400" width="100" height="100" fill="#D9D9D9"/>
<rect x="1400" y="1500" width="100" height="100" fill="#D9D9D9"/>
<rect x="1500" width="100" height="100" fill="#D9D9D9"/>
<rect x="1500" y="100" width="100" height="100" fill="#D9D9D9"/>
<rect x="1500" y="200" width="100" height="100" fill="#D9D9D9"/>
<rect x="1500" y="300" width="100" height="100" fill="#D9D9D9"/>
<rect x="1500" y="400" width="100" height="100" fill="#D9D9D9"/>
<rect x="1500" y="500" width="100" height="100" fill="#D9D9D9"/>
<rect x="1500" y="600" width="100" height="100" fill="#D9D9D9"/>
<rect x="1500" y="700" width="100" height="100" fill="#D9D9D9"/>
<rect x="1500" y="800" width="100" height="100" fill="#D9D9D9"/>
<rect x="1500" y="900" width="100" height="100" fill="#D9D9D9"/>
<rect x="1500" y="1000" width="100" height="100" fill="#D9D9D9"/>
<rect x="1500" y="1100" width="100" height="100" fill="#D9D9D9"/>
<rect x="1500" y="1200" width="100" height="100" fill="#D9D9D9"/>
<rect x="1500" y="1300" width="100" height="100" fill="#D9D9D9"/>
<rect x="1500" y="1400" width="100" height="100" fill="#D9D9D9"/>
<rect x="1500" y="1500" width="100" height="100" fill="#D9D9D9"/>
</g>
<defs>
<clipPath id="clip0_1_1566">
<rect width="1600" height="1600" fill="white"/>
</clipPath>
</defs>
</svg>
